HIERARCHY
ROOT Hips
{
	OFFSET 0.0000 0.0000 0.0000
	CHANNELS 6 Xposition Yposition Zposition Zrotation Xrotation Yrotation
	JOINT Ab
	{
		OFFSET -0.0000 8.0846 -0.0000
		CHANNELS 3 Zrotation Xrotation Yrotation
		JOINT Chest
		{
			OFFSET -0.0000 25.0068 -0.0000
			CHANNELS 3 Zrotation Xrotation Yrotation
			JOINT Neck
			{
				OFFSET -0.0000 25.0068 0.0000
				CHANNELS 3 Zrotation Xrotation Yrotation
				JOINT Head
				{
					OFFSET -0.0000 10.7556 0.0000
					CHANNELS 3 Zrotation Xrotation Yrotation
					End Site
					{
						OFFSET -0.0000 16.6222 0.0000
					}
				}
			}
			JOINT LeftCollar
			{
				OFFSET -0.0000 25.0068 0.0000
				CHANNELS 3 Zrotation Xrotation Yrotation
				JOINT LeftShoulder
				{
					OFFSET 19.5556 -0.0000 0.0000
					CHANNELS 3 Zrotation Xrotation Yrotation
					JOINT LeftElbow
					{
						OFFSET 27.1828 0.0000 0.0000
						CHANNELS 3 Zrotation Xrotation Yrotation
						JOINT LeftWrist
						{
							OFFSET 23.3157 0.0000 0.0000
							CHANNELS 3 Zrotation Xrotation Yrotation
							End Site
							{
								OFFSET 0.0000 -14.6667 0.0000
							}
						}
					}
				}
			}
			JOINT RightCollar
			{
				OFFSET -0.0000 25.0068 0.0000
				CHANNELS 3 Zrotation Xrotation Yrotation
				JOINT RightShoulder
				{
					OFFSET -19.5556 0.0000 0.0000
					CHANNELS 3 Zrotation Xrotation Yrotation
					JOINT RightElbow
					{
						OFFSET -27.1828 0.0000 0.0000
						CHANNELS 3 Zrotation Xrotation Yrotation
						JOINT RightWrist
						{
							OFFSET -23.3157 0.0000 0.0000
							CHANNELS 3 Zrotation Xrotation Yrotation
							End Site
							{
								OFFSET -0.0000 -14.6667 0.0000
							}
						}
					}
				}
			}
		}
	}
	JOINT LeftHip
	{
		OFFSET 11.7333 0.0000 0.0000
		CHANNELS 3 Zrotation Xrotation Yrotation
		JOINT LeftKnee
		{
			OFFSET -0.0000 -40.8688 0.0000
			CHANNELS 3 Zrotation Xrotation Yrotation
			JOINT LeftAnkle
			{
				OFFSET -0.0000 -44.4337 0.0000
				CHANNELS 3 Zrotation Xrotation Yrotation
				End Site
				{
					OFFSET -0.0000 -4.8889 16.6222
				}
			}
		}
	}
	JOINT RightHip
	{
		OFFSET -11.7333 0.0000 0.0000
		CHANNELS 3 Zrotation Xrotation Yrotation
		JOINT RightKnee
		{
			OFFSET -0.0000 -40.8688 0.0000
			CHANNELS 3 Zrotation Xrotation Yrotation
			JOINT RightAnkle
			{
				OFFSET -0.0000 -44.4337 0.0000
				CHANNELS 3 Zrotation Xrotation Yrotation
				End Site
				{
					OFFSET -0.0000 -4.8889 16.6222
				}
			}
		}
	}
}
MOTION
Frames: 17
Frame Time: 0.010000
-3.6805 88.7572 190.2336 2.5986 358.9367 173.9705 2.1828 358.5464 358.1958 358.8038 12.3015 358.2971 2.7779 343.0349 2.2736 1.3420 7.8594 1.7629 339.3705 358.5136 8.1655 300.9160 30.6090 354.1539 16.6754 354.2772 322.3160 80.7237 1.1826 338.6122 22.2255 359.1416 355.6589 59.5531 41.2246 7.5938 338.3944 354.1792 29.9098 278.1013 352.2408 22.1887 2.1807 357.5560 358.7838 359.1020 10.1861 359.0322 356.6632 351.9242 21.7225 2.4026 351.7996 359.7282 359.1265 18.1792 9.3648 355.3866 345.8168 337.8792 
-3.6894 88.7575 190.2206 2.5963 358.9628 173.9635 2.1883 358.5682 358.1993 358.7943 12.3020 358.3019 2.7482 343.0149 2.2629 1.3755 7.9254 1.7549 339.3721 358.4977 8.1788 300.9237 30.6652 354.1514 16.7270 354.2571 322.2869 80.6831 1.1466 338.5642 22.2274 359.1565 355.6678 59.5535 41.2018 7.5945 338.4942 354.1961 29.9816 277.9724 352.4794 22.4539 2.1653 357.6025 358.7687 359.1083 10.1653 359.0502 356.7006 351.9351 21.7198 2.3883 351.8369 359.7480 359.1369 18.1799 9.3625 355.3911 345.8042 337.8608 
-3.6965 88.7574 190.2193 2.5950 358.9546 173.9640 2.1965 358.5710 358.1943 358.7879 12.2892 358.2969 2.7069 342.9960 2.2381 1.4078 7.9922 1.7323 339.3668 358.5117 8.2370 300.9868 30.9001 354.0714 16.8187 354.2245 322.3816 80.6689 1.0782 338.6576 22.2306 359.1508 355.6657 59.5399 41.2266 7.6083 338.5127 354.2128 30.0421 277.9295 352.6331 22.6544 2.1631 357.5910 358.7752 359.1005 10.1742 359.0160 356.7104 351.9223 21.7609 2.3870 351.8251 359.7296 359.1229 18.1854 9.3768 355.4045 345.8077 337.8684 
-3.7048 88.7572 190.2157 2.5970 358.9561 173.9627 2.2087 358.5850 358.1917 358.7825 12.2756 358.2962 2.6371 342.9720 2.2034 1.4724 8.0550 1.7015 339.3605 358.4979 8.2551 301.0055 30.9679 354.0555 16.8729 354.2163 322.3525 80.6611 1.1086 338.6890 22.2323 359.1571 355.6749 59.5437 41.2208 7.6015 338.4658 354.1690 29.9741 277.9889 352.4451 22.4067 2.1566 357.5981 358.7846 359.1063 10.1685 359.0235 356.7200 351.9254 21.7437 2.3830 351.8285 359.7537 359.1344 18.1846 9.3508 355.3877 345.8069 337.8629 
-3.7136 88.7572 190.2114 2.5972 358.9603 173.9670 2.2138 358.6006 358.1941 358.7818 12.2603 358.2988 2.5725 342.9468 2.1643 1.5267 8.1279 1.6654 339.3514 358.4975 8.2631 301.0371 31.0554 354.0412 16.9033 354.2235 322.3836 80.6792 1.0494 338.7321 22.2318 359.1447 355.6762 59.5609 41.2259 7.5811 338.3917 354.1337 29.9440 278.0657 352.3121 22.2140 2.1496 357.6092 358.7808 359.1093 10.1571 359.0191 356.7375 351.9375 21.7442 2.3766 351.8352 359.7445 359.1304 18.1852 9.3596 355.3988 345.7995 337.8684 
-3.7210 88.7583 190.2117 2.5972 358.9502 173.9769 2.2178 358.5983 358.1902 358.7859 12.2584 358.2939 2.5107 342.9175 2.1269 1.5766 8.1902 1.6324 339.3496 358.4840 8.2755 301.0513 31.1602 354.0181 16.9776 354.1827 322.3838 80.6865 1.0347 338.8058 22.2323 359.1550 355.6725 59.5536 41.2021 7.5942 338.4695 354.1699 29.9985 277.9803 352.4640 22.4890 2.1449 357.5912 358.7615 359.1070 10.1658 359.0364 356.7051 351.9261 21.7380 2.3727 351.8240 359.7449 359.1314 18.1905 9.3302 355.4057 345.7967 337.8873 
-3.7277 88.7588 190.2061 2.5935 358.9564 173.9769 2.2205 358.6009 358.1883 358.7787 12.2650 358.2931 2.4891 342.9091 2.1222 1.6246 8.2347 1.6304 339.3521 358.5104 8.2668 301.0570 31.1100 354.0073 16.8842 354.2269 322.4139 80.7774 0.9790 338.7501 22.2280 359.1402 355.6992 59.6105 41.2022 7.5434 338.4411 354.1635 30.0891 277.9295 352.6652 22.7119 2.1380 357.6155 358.7752 359.1029 10.1380 359.0187 356.7236 351.9434 21.7550 2.3649 351.8346 359.7473 359.1294 18.1833 9.3603 355.3888 345.8028 337.8546 
-3.7349 88.7576 190.2022 2.5957 358.9561 173.9829 2.2245 358.6025 358.1886 358.7808 12.2701 358.2929 2.4501 342.8726 2.0939 1.6364 8.3060 1.6021 339.3498 358.4882 8.2670 301.0641 31.1815 353.9986 16.9758 354.1912 322.3964 80.7780 0.9487 338.8025 22.2276 359.1583 355.6842 59.5686 41.1990 7.5967 338.5059 354.1696 30.0552 277.9236 352.6439 22.7473 2.1350 357.6144 358.7660 359.1054 10.1425 359.0231 356.7002 351.9277 21.7316 2.3616 351.8408 359.7455 359.1320 18.1802 9.3323 355.3820 345.7845 337.8594 
-3.7419 88.7583 190.2002 2.5951 358.9522 173.9846 2.2360 358.6057 358.1824 358.7656 12.2636 358.2880 2.4170 342.8653 2.0789 1.6894 8.3470 1.5877 339.3550 358.4698 8.3039 301.0849 31.3146 353.9628 17.0501 354.1720 322.4562 80.7812 0.9052 338.8740 22.2328 359.1336 355.6915 59.5791 41.2163 7.5778 338.4526 354.1505 30.0865 277.9462 352.6721 22.7038 2.1313 357.6102 358.7505 359.0964 10.1419 359.0599 356.7043 351.9306 21.7224 2.3576 351.8435 359.7563 359.1312 18.1724 9.3219 355.4043 345.7809 337.8680 
-3.7485 88.7590 190.1981 2.5930 358.9495 173.9862 2.2353 358.6071 358.1824 358.7649 12.2632 358.2887 2.3640 342.8425 2.0523 1.7627 8.4130 1.5634 339.3597 358.4884 8.3036 301.0888 31.3102 353.9427 17.0217 354.2025 322.4951 80.8672 0.8527 338.8666 22.2385 359.1464 355.6966 59.5531 41.2033 7.5895 338.5261 354.1797 30.0968 277.7880 352.7926 22.7377 2.1240 357.6056 358.7588 359.0968 10.1419 359.0680 356.7308 351.9377 21.7159 2.3501 351.8410 359.7679 359.1395 18.1748 9.3303 355.5945 345.6584 337.7653 
-3.7563 88.7596 190.1960 2.5887 358.9483 173.9917 2.2305 358.6047 358.1823 358.7692 12.2743 358.2873 2.3140 342.8131 2.0256 1.8304 8.4795 1.5371 339.3743 358.4841 8.2634 301.0342 31.1603 353.9754 16.9578 354.2271 322.4572 80.9080 0.8414 338.7357 22.2370 359.1513 355.7058 59.5528 41.1956 7.5943 338.5146 354.1577 30.1095 277.7559 352.8364 22.7542 2.1148 357.6085 358.7441 359.0913 10.1325 359.0808 356.7629 351.9498 21.7269 2.3421 351.8387 359.7462 359.1278 18.1777 9.3466 355.5728 345.6727 337.7806 
-3.7640 88.7613 190.1923 2.5886 358.9595 173.9973 2.2295 358.6184 358.1835 358.7703 12.2810 358.2898 2.2993 342.8052 2.0146 1.8373 8.4972 1.5268 339.3875 358.4941 8.2097 300.9848 30.9610 354.0054 16.8288 354.2659 322.4338 80.9514 0.8237 338.5422 22.2323 359.1460 355.7122 59.5740 41.1941 7.5781 338.4766 354.1378 30.0961 277.9071 352.7349 22.7631 2.1124 357.6379 358.7427 359.0896 10.1064 359.0489 356.7467 351.9570 21.7408 2.3338 351.8578 359.7385 359.1317 18.1693 9.3366 355.3532 345.7916 337.8432 
-3.7694 88.7620 190.1944 2.5910 358.9479 174.0061 2.2315 358.6153 358.1817 358.7747 12.2823 358.2857 2.2999 342.8033 2.0126 1.8324 8.5026 1.5248 339.3906 358.5213 8.2141 300.9990 30.9788 353.9562 16.8167 354.2290 322.4481 80.9258 0.8470 338.5338 22.2268 359.1452 355.7164 59.5824 41.1610 7.5745 338.4712 354.1613 30.1028 277.9640 352.7017 22.7527 2.1106 357.6156 358.7380 359.0950 10.1214 359.0600 356.7403 351.9602 21.7167 2.3391 351.8416 359.7343 359.1236 18.1710 9.3269 355.3625 345.7814 337.8461 
-3.7742 88.7628 190.1941 2.5909 358.9477 174.0106 2.2312 358.6281 358.1824 358.7724 12.2685 358.2889 2.2999 342.8038 2.0096 1.8299 8.5076 1.5220 339.4052 358.4993 8.2046 300.9710 30.9219 353.9642 16.8169 354.2417 322.4053 80.9273 0.8420 338.5303 22.2299 359.1430 355.7056 59.5600 41.1820 7.5964 338.4927 354.1657 30.0894 277.8218 352.7576 22.7567 2.1045 357.6062 358.7500 359.1062 10.1365 359.0480 356.6976 351.9383 21.6978 2.3372 351.8401 359.7454 359.1245 18.1762 9.2905 355.3990 345.7774 337.8720 
-3.7808 88.7644 190.1933 2.5897 358.9452 174.0179 2.2315 358.6293 358.1820 358.7686 12.2703 358.2879 2.3018 342.8033 2.0084 1.8273 8.5119 1.5207 339.4051 358.5074 8.2187 300.9966 31.0040 353.9359 16.8198 354.2477 322.4608 80.9420 0.8074 338.5618 22.2253 359.1504 355.7094 59.5549 41.1662 7.6065 338.5242 354.1645 30.0964 277.7733 352.8488 22.7667 2.0988 357.5975 358.7318 359.0971 10.1490 359.0440 356.7145 351.9378 21.7232 2.3338 351.8366 359.7232 359.1097 18.1810 9.3307 355.4340 345.7630 337.8656 
-3.7879 88.7658 190.1919 2.5860 358.9450 174.0158 2.2313 358.6304 358.1867 358.7644 12.2795 358.2932 2.3071 342.8011 2.0102 1.8243 8.5147 1.5218 339.4044 358.5154 8.2308 301.0188 31.0426 353.8994 16.8315 354.2299 322.4724 80.9469 0.7721 338.5722 22.2193 359.1510 355.7160 59.5677 41.1539 7.6019 338.5138 354.1686 30.0919 277.8105 352.8369 22.7337 2.0916 357.6077 358.7186 359.0975 10.1281 359.0372 356.7036 351.9401 21.7341 2.3249 351.8371 359.7302 359.1130 18.1804 9.3283 355.4466 345.7562 337.8605 
-3.7944 88.7663 190.1910 2.5848 358.9436 174.0134 2.2329 358.6325 358.1923 358.7598 12.2850 358.2999 2.3072 342.7983 2.0099 1.8253 8.5193 1.5215 339.4082 358.4942 8.2344 301.0227 31.0912 353.8992 16.8967 354.2200 322.4586 80.8958 0.7612 338.6167 22.2117 359.1513 355.7159 59.5651 41.1657 7.6136 338.5088 354.1687 30.0748 277.8694 352.8005 22.7177 2.0899 357.6109 358.7184 359.0869 10.1184 359.0495 356.7298 351.9508 21.7410 2.3204 351.8364 359.7353 359.1141 18.1784 9.3252 355.4473 345.7466 337.8484 
